<svg width="128" height="40" viewBox="0 0 128 40" fill="none" xmlns="http://www.w3.org/2000/svg">
<path d="M0 40V0.930054H5.08712V34.1528H35.2185V40H0Z" fill="#D9D9D9"/>
<path d="M9.26123 29.5018V0.664454H14.2179V22.3257L35.0881 17.9403V24.1861L9.26123 29.5018Z" fill="#F0AC28"/>
<path d="M18.5224 18.4718V0.664454H24.0008V7.97345L35.0881 0V6.37876L18.5224 18.4718Z" fill="#F0AC28"/>
<path d="M47.515 35.1214L40.2285 16.2237H42.9225L47.8101 29.9523C48.2035 31.0523 48.5327 32.0835 48.7978 33.046C49.0886 32.0148 49.4264 30.9835 49.8113 29.9523L54.8913 16.2237H57.4313L50.0678 35.1214H47.515Z" fill="#ABA8A8"/>
<path d="M59.7147 35.1214V16.2237H73.3128V18.4538H62.2034V24.2417H72.6072V26.4589H62.2034V32.8913H73.7489V35.1214H59.7147Z" fill="#ABA8A8"/>
<path d="M81.9719 35.1214V18.4538H75.7758V16.2237H90.6823V18.4538H84.4606V35.1214H81.9719Z" fill="#ABA8A8"/>
<path d="M92.0037 25.9175C92.0037 22.7808 92.8418 20.3272 94.518 18.5569C96.1942 16.778 98.358 15.8885 101.009 15.8885C102.745 15.8885 104.31 16.3053 105.704 17.1389C107.098 17.9725 108.159 19.137 108.886 20.6323C109.621 22.119 109.989 23.8077 109.989 25.6983C109.989 27.6148 109.604 29.3292 108.834 30.8417C108.065 32.3542 106.974 33.5015 105.563 34.2835C104.152 35.057 102.63 35.4437 100.996 35.4437C99.226 35.4437 97.6438 35.014 96.2498 34.1546C94.8558 33.2952 93.7996 32.1222 93.0812 30.6355C92.3628 29.1487 92.0037 27.5761 92.0037 25.9175ZM94.5693 25.9562C94.5693 28.2335 95.1765 30.0296 96.3909 31.3444C97.6139 32.6507 99.1448 33.3038 100.983 33.3038C102.856 33.3038 104.396 32.6421 105.602 31.3187C106.816 29.9952 107.423 28.1175 107.423 25.6854C107.423 24.1472 107.162 22.8065 106.641 21.6636C106.128 20.512 105.371 19.6225 104.37 18.9952C103.378 18.3593 102.262 18.0413 101.022 18.0413C99.2602 18.0413 97.7422 18.6514 96.4679 19.8718C95.2022 21.0835 94.5693 23.1116 94.5693 25.9562Z" fill="#ABA8A8"/>
<path d="M113.183 35.1214V16.2237H115.736L125.614 31.0609V16.2237H128V35.1214H125.447L115.569 20.2714V35.1214H113.183Z" fill="#ABA8A8"/>
<path d="M8.5332 30.5549V0H13.9879L14.2152 22.2217L35.3522 17.8629V24.768L8.5332 30.5549Z" fill="#D9D9D9"/>
</svg>
